<svg xmlns="http://www.w3.org/2000/svg" width="35" height="34" fill="none" viewBox="0 0 35 34">
    <path fill="#1A9F29" d="M32.132 6.607L31.03 5.048 10.662 16.852.809 11.135a9.14 9.14 0 0 0-.441 1.93l10.367 6.014L32.132 6.607z"/>
    <path fill="#1A9F29" d="M10.662 21.306L.074 15.144C0 15.515 0 15.961 0 16.332 0 26.057 7.794 34 17.5 34 27.132 34 35 26.131 35 16.332c0-2.895-.662-5.642-1.912-8.018L10.662 21.306z"/>
    <path fill="#1A9F29" d="M29.632 3.563c-.514-.52-1.03-.89-1.544-1.336l-17.426 10.17-8.383-4.825c-.294.52-.588 1.114-.882 1.707l9.191 5.345 19.044-11.06z"/>
    <path fill="#1A9F29" d="M26.323 1.04C25.662.667 25 .296 24.265 0L10.662 7.943 4.559 4.454c-.441.446-.81.965-1.25 1.485l7.28 4.231 15.734-9.13z"/>
</svg>
