<svg xmlns="http://www.w3.org/2000/svg" width="35" height="30" fill="none" viewBox="0 0 35 30">
    <path fill="#2E4B7D" fill-rule="evenodd" d="M17.542 14.039L25.678 0H9.322l8.22 14.039zm5.509-12.284c.593-.25.932-.502 1.356-.752l.084.083c-.254.335-.593.585-.847 1.17l-5.17 8.775c-.338.501-.508.919-.677 1.337l-.085-.084c0-.501.085-1.003.085-1.588v-5.85l5.254-3.091zm-5.848 3.092v5.85c0 .584.085 1.086.085 1.587l-.085.084c-.17-.418-.339-.836-.678-1.337l-5.084-8.775c-.34-.585-.678-.835-.933-1.17l.085-.083c.424.25.763.501 1.356.752l5.254 3.092zm4.068 7.771c-.593.335-.932.585-1.356.836l-.084-.084c.254-.334.593-.668.847-1.253l5.17-8.69c.338-.502.508-1.004.677-1.338h.085c0 .502-.085 1.086-.085 1.588V9.61l-5.254 3.008zM8.56 9.61V3.677c0-.502-.084-1.086-.084-1.588h.084c.085.334.255.836.594 1.337l5.169 8.691c.339.585.593.92.848 1.253l-.085.084c-.34-.25-.763-.501-1.356-.836L8.559 9.61zm18.56 0V3.677c0-.502-.085-1.086-.085-1.588h.085c.17.334.339.836.678 1.337l5.084 8.691c.34.585.678.92.933 1.253l-.085.084c-.424-.25-.763-.501-1.356-.836L27.119 9.61zM2.627 12.618c-.593.335-.932.585-1.356.836v-.084c.17-.334.509-.668.848-1.253l5.17-8.69c.253-.502.423-1.004.592-1.338h.085c0 .502-.085 1.086-.085 1.588V9.61l-5.254 3.008zm15.17 12.535V19.22c0-.501-.085-1.086-.085-1.588h.085c.17.335.339.836.678 1.337l5.17 8.775c.253.501.592.835.846 1.17l-.084.083c-.424-.25-.763-.501-1.356-.835l-5.254-3.009zm-5.848 3.009c-.593.334-.932.585-1.356.835l-.085-.083c.255-.335.594-.669.933-1.17l5.084-8.775c.34-.501.509-1.002.678-1.337h.085c0 .502-.085 1.087-.085 1.588v5.933l-5.254 3.009zm-3.729 1.42l8.136-14.039H0l8.22 14.04zm5.509-12.2c.593-.335 1.017-.585 1.356-.836l.084.084c-.254.334-.508.668-.847 1.17l-5.17 8.774a4.29 4.29 0 0 0-.593 1.337l-.084-.084c0-.418.084-1.003.084-1.504V20.39l5.17-3.008zM7.88 20.39v5.933c0 .502.085 1.087.085 1.504l-.085.084c-.17-.334-.339-.836-.593-1.337l-5.17-8.775c-.338-.501-.677-.835-.847-1.17v-.083c.424.25.763.501 1.356.836l5.254 3.008zm18.899 9.192L35 15.543H18.644l8.136 14.04zm-.255-9.192v5.933c0 .502.085 1.087.085 1.504l-.085.084c-.17-.334-.339-.836-.677-1.337l-5.17-8.775c-.254-.501-.593-.835-.848-1.17l.085-.083c.424.25.763.501 1.356.836l5.254 3.008zm5.848-3.008c.593-.335.932-.585 1.356-.836l.085.084c-.255.334-.594.668-.933 1.17l-5.084 8.774c-.34.501-.509 1.003-.678 1.337l-.085-.084c0-.418.085-1.003.085-1.504V20.39l5.254-3.008zm-10-16.713c.678 0 1.186-.084 1.695-.168v.084c-.34.167-.848.334-1.356.668l-5.17 3.009-5.254-3.009c-.508-.334-1.017-.5-1.356-.668V.501c.509.084 1.017.168 1.695.168h9.746zm-9.237 15.543c.593 0 1.101-.084 1.61-.084-.34.167-.848.334-1.356.669l-5.17 3.008-5.254-3.008c-.424-.335-1.017-.502-1.356-.669.509 0 1.017.084 1.695.084h9.83zm18.559 0c.678 0 1.186-.084 1.695-.084-.34.167-.848.334-1.356.669l-5.254 3.008-5.17-3.008c-.508-.335-1.017-.502-1.356-.669.509 0 1.017.084 1.695.084h9.746zm-28.39-2.424c-.678 0-1.186 0-1.695.084v-.084c.34-.167.932-.334 1.356-.585l5.254-3.008 5.17 3.008c.508.251 1.017.418 1.356.585v.084c-.509-.084-1.017-.084-1.61-.084h-9.83zM0 14.457h16.356L8.22.417 0 14.458zm21.95-.669c-.679 0-1.187 0-1.696.084v-.084c.34-.167.848-.334 1.356-.585l5.17-3.008 5.254 3.008c.508.251 1.017.418 1.356.585v.084c-.509-.084-1.017-.084-1.695-.084h-9.746zm-3.306.669H35L26.78.417l-8.136 14.04zM9.322 30h16.356l-8.136-14.039L9.322 30zm3.305-.669c-.678 0-1.186 0-1.695.084v-.084c.34-.083.848-.25 1.356-.584l5.254-3.009 5.17 3.009a4.414 4.414 0 0 0 1.356.584v.084c-.509-.084-1.017-.084-1.695-.084h-9.746z" clip-rule="evenodd"/>
</svg>
