<svg xmlns="http://www.w3.org/2000/svg" width="172" height="46" fill="none" viewBox="0 0 172 46">
    <path fill="#BBBDBE" d="M0 22.933h5.693V34.33H0V22.932zM85.796 40.03h-5.692V17.098h5.692V40.03zm11.386-17.098h-5.693V11.535h5.693v11.399zM68.583 11.4h5.693V34.33h-5.693V11.399zM28.599 34.33h-5.693V11.399H28.6V34.33zM17.213 22.932h-5.692V5.7h5.692v17.233z"/>
    <path fill="#E1251B" d="M62.89 17.233h-5.692v28.632h5.693V17.233zM39.984 0H34.29v11.398h5.693V0zM39.984 17.233H34.29v28.632h5.693V17.233zM51.505 0h-5.693v45.864h5.693V0zM62.89 0h-5.692v11.398h5.693V0zM110.736 16.69h-1.627V28.09h1.627V16.69z"/>
    <path fill="#E1251B" fill-rule="evenodd" d="M121.172 16.69v1.357h-3.659v10.041h-1.491V18.047h-3.66V16.69h8.81z" clip-rule="evenodd"/>
    <path fill="#E1251B" d="M124.426 16.69h-1.627v11.398h1.627V16.69z"/>
    <path fill="#E1251B" fill-rule="evenodd" d="M114.26 46a5.429 5.429 0 0 1-2.033-.407c-.678-.272-1.22-.679-1.627-1.221-.406-.543-.813-1.086-1.084-1.9-.271-.678-.407-1.628-.407-2.578s.136-1.764.407-2.578c.271-.679.678-1.357 1.22-1.9.542-.543 1.084-.95 1.626-1.086a5.436 5.436 0 0 1 2.033-.407c.407 0 .813 0 1.22.136.407 0 .678.136.949.271.271.136.542.136.678.272.135.136.271.136.406.271l-.406.95c-.271-.136-.678-.271-1.085-.543a5.05 5.05 0 0 0-1.626-.271c-.678 0-1.356.136-1.898.407-.542.271-.949.543-1.355 1.086-.407.407-.678.95-.813 1.628a8.2 8.2 0 0 0-.271 2.035 8.2 8.2 0 0 0 .271 2.036c.135.678.406 1.085.813 1.492.406.407.813.814 1.355.95a3.75 3.75 0 0 0 1.762.407c.678 0 1.356-.136 1.762-.271a4.594 4.594 0 0 0 1.085-.407l.271.95c-.136 0-.271.135-.407.135-.136.136-.407.136-.678.272-.271.135-.677.135-.948.135-.272.136-.678.136-1.22.136zM127.814 45.729c-.271-.543-.407-1.086-.542-1.628-.136-.543-.407-1.086-.543-1.493h-5.557c-.135.543-.406.95-.542 1.493-.135.542-.407 1.085-.542 1.628h-1.22a94.274 94.274 0 0 1 1.22-3.392c.407-1.086.813-2.036 1.084-2.986.407-.95.678-1.764 1.085-2.713.406-.815.813-1.629 1.219-2.579h.949c.407.815.813 1.629 1.085 2.579.406.814.677 1.764 1.084 2.713.406.95.813 1.9 1.084 2.986a94.274 94.274 0 0 1 1.22 3.392h-1.084zm-3.931-10.177l-1.22 2.85c-.406.95-.813 2.035-1.22 3.12h4.88c-.407-1.085-.813-2.17-1.22-3.12l-1.22-2.85zM133.913 34.195c1.626 0 2.846.271 3.66.95.813.678 1.219 1.492 1.219 2.578 0 .678-.135 1.221-.406 1.628-.271.407-.542.815-.949 1.086a4.526 4.526 0 0 1-1.626.678c-.678.136-1.356.136-2.169.136h-1.491v4.478h-1.084V34.466c.406-.135.813-.135 1.355-.271h1.491zm.136.95h-1.085c-.271 0-.542 0-.813.136v5.02h1.355c.543 0 1.22 0 1.627-.136.542-.135.949-.27 1.22-.407.406-.135.677-.407.813-.814.136-.407.271-.814.271-1.357 0-.542-.135-.95-.271-1.22-.136-.272-.407-.544-.813-.815-.271-.136-.678-.271-1.085-.407h-1.219z" clip-rule="evenodd"/>
    <path fill="#E1251B" d="M142.587 34.33h-1.084v11.398h1.084V34.33z"/>
    <path fill="#E1251B" fill-rule="evenodd" d="M153.566 34.33v.95h-3.659v10.448h-1.22V35.28h-3.66v-.95h8.539zM162.783 45.729c-.271-.543-.407-1.086-.542-1.628-.136-.543-.407-1.086-.543-1.493h-5.557c-.135.543-.406.95-.542 1.493-.135.542-.407 1.085-.542 1.628h-1.22a94.274 94.274 0 0 1 1.22-3.392c.407-1.086.813-2.036 1.084-2.986.407-.95.678-1.764 1.085-2.713.406-.815.813-1.629 1.219-2.579h.949c.407.815.813 1.629 1.085 2.579.406.814.677 1.764 1.084 2.713.406.95.813 1.9 1.084 2.986a94.274 94.274 0 0 1 1.22 3.392h-1.084zm-3.931-10.177l-1.22 2.85c-.406.95-.813 2.035-1.22 3.12h4.88c-.407-1.085-.813-2.17-1.22-3.12l-1.22-2.85zM171.999 44.779v.95h-6.505V34.33h1.084V44.78h5.421z" clip-rule="evenodd"/>
</svg>
