<svg xmlns="http://www.w3.org/2000/svg" width="61" height="40" fill="none" viewBox="0 0 61 40">
    <mask id="a" width="6" height="8" x="0" y="17" maskUnits="userSpaceOnUse">
        <path fill="#fff" d="M0 17.866h5.7V24.3H0v-6.433z"/>
    </mask>
    <g mask="url(#a)">
        <path fill="#006A53" fill-rule="evenodd" d="M.764 17.866l1.859 3.38.371.8h.032l.32-.763 1.61-3.416H5.7l-2.561 5.35c-.269.555-.496 1.082-1.384 1.082a2.275 2.275 0 0 1-.733-.11l.031-.508c.207.09.403.1.61.1.382 0 .568-.218.795-.718l.175-.382L0 17.867h.764" clip-rule="evenodd"/>
    </g>
    <path fill="#006A53" fill-rule="evenodd" d="M6.421 18.29h.954c.167 0 1.408.008 1.408 1.193 0 1.136-1.056 1.193-1.408 1.193h-.954V18.29zm-.611-.47v5.762h.611v-2.436h1.074c1.214 0 1.945-.675 1.945-1.663S8.7 17.82 7.495 17.82H5.81zm6.183.535l.234.543 1.292 2.626h-3.074l1.293-2.626.234-.543h.02zm-.448-.535l-2.83 5.762h.722l.784-1.589h3.522l.784 1.589h.723l-2.83-5.762h-.875zm9.515 0v5.696h-.7v-5.232h-2.853v1.506c0 1.936.032 3.792-1.738 3.792-.106 0-.297-.009-.52-.058l.043-.447c.127.024.307.04.424.04 1.283 0 1.092-2.408 1.092-3.352V17.82h4.251zm2.862 0v2.461h.03l2.513-2.461h1.678l-2.9 2.61 3.079 3.151h-1.788l-2.582-2.864h-.03v2.865h-1.41V17.82h1.41z" clip-rule="evenodd"/>
    <path fill="#006A53" fill-rule="evenodd" d="M30.18 21.335l.98-2.355h.02l1.041 2.355h-2.04zm.233-3.515l-2.818 5.762h1.536l.595-1.3h2.92l.594 1.3h1.617L32.05 17.82h-1.636zm10.98 0v5.696h-1.377V18.83h-1.794v1.14c0 1.912.039 3.613-1.979 3.613-.223 0-.475-.033-.66-.066l.059-.903c.087.016.261.04.368.04 1.067 0 .922-1.627.922-2.978V17.82h4.461zm2.085 0v2.964l-.029 1.398h.029l.478-.84 2.345-3.522h1.627v5.762H46.57V20.61l.029-1.391h-.03l-.459.872-2.364 3.49H42.12V17.82h1.359zm7.262-.367v3.152l-.03 1.488h.03l.478-.892 2.345-3.747h1.627v6.128h-1.359v-3.16l.03-1.48h-.03l-.46.928-2.363 3.712H49.38v-6.129h1.359zm3.244-1.452c-.392.884-1.205 1.024-1.77 1.024s-1.379-.14-1.77-1.024l.698-.342c.239.543.842.57 1.071.57.23 0 .833-.027 1.073-.57l.698.342z" clip-rule="evenodd"/>
    <path fill="#EC1D24" fill-rule="evenodd" d="M16.086 33.212a2.868 2.868 0 0 0 .104-4.79 2.916 2.916 0 0 0-2.173-.475 2.92 2.92 0 0 0-1.057.409 2.865 2.865 0 0 0-.884 3.976c.204.319.47.594.782.811a2.915 2.915 0 0 0 2.171.477 2.916 2.916 0 0 0 1.057-.408zm6.948 3.805c.222-.424.265-.917.12-1.372a1.81 1.81 0 0 0-1.573-1.253 1.834 1.834 0 0 0-1.326.414 1.792 1.792 0 0 0 .33 2.975 1.828 1.828 0 0 0 2.006-.217c.183-.152.333-.338.442-.547z" clip-rule="evenodd"/>
    <mask id="b" width="4" height="4" x="28" y="36" maskUnits="userSpaceOnUse">
        <path fill="#fff" d="M28.492 36.617h3.343v2.81h-3.343v-2.81z"/>
    </mask>
    <g mask="url(#b)">
        <path fill="#EC1D24" fill-rule="evenodd" d="M31.834 37.963c-.04-.774-.82-1.376-1.742-1.343-.921.033-1.638.686-1.599 1.462.04.776.82 1.376 1.74 1.343.924-.032 1.64-.686 1.6-1.462z" clip-rule="evenodd"/>
    </g>
    <path fill="#EC1D24" fill-rule="evenodd" d="M39.045 35.056c-.322-.674-.996-.873-1.503-.448-.508.426-.66 1.316-.337 1.988.322.673.994.871 1.503.446.508-.426.658-1.315.337-1.986zm6.122-6.309a1.096 1.096 0 0 0-1.471.454 1.07 1.07 0 0 0-.076.823 1.086 1.086 0 0 0 .943.755 1.1 1.1 0 0 0 .796-.246 1.077 1.077 0 0 0-.192-1.786" clip-rule="evenodd"/>
    <path fill="#006A53" fill-rule="evenodd" d="M40.558 6.749a2.867 2.867 0 0 0-.105 4.789 2.919 2.919 0 0 0 2.173.476 2.92 2.92 0 0 0 1.057-.408 2.866 2.866 0 0 0 .884-3.977 2.918 2.918 0 0 0-4.01-.88zM33.61 2.224a1.784 1.784 0 0 0-.121 1.372 1.81 1.81 0 0 0 1.573 1.253 1.832 1.832 0 0 0 1.325-.414 1.792 1.792 0 0 0-.329-2.975 1.827 1.827 0 0 0-2.448.764" clip-rule="evenodd"/>
    <mask id="c" width="4" height="5" x="25" y="-1" maskUnits="userSpaceOnUse">
        <path fill="#fff" d="M25.559 0h3.343v3.315h-3.343V0z"/>
    </mask>
    <g mask="url(#c)">
        <path fill="#006A53" fill-rule="evenodd" d="M25.561 1.727a1.638 1.638 0 0 0 .538 1.15 1.678 1.678 0 0 0 1.202.437c.444-.02.862-.213 1.162-.537A1.643 1.643 0 0 0 28.748.96a1.654 1.654 0 0 0-.942-.858 1.684 1.684 0 0 0-1.807.436c-.3.323-.457.75-.438 1.19z" clip-rule="evenodd"/>
    </g>
    <path fill="#006A53" fill-rule="evenodd" d="M17.598 4.907c.321.672.994.871 1.503.446.508-.426.659-1.316.337-1.988-.322-.672-.995-.87-1.503-.446-.509.427-.659 1.315-.337 1.988zm-5.396 7.027a1.097 1.097 0 0 0 1.47-.454c.135-.254.162-.55.076-.823a1.088 1.088 0 0 0-1.365-.71 1.092 1.092 0 0 0-.64.529 1.07 1.07 0 0 0-.075.822c.086.274.278.502.534.636zM59.189 17.1c-.986 0-1.82.762-1.82 1.796 0 1.042.834 1.805 1.82 1.805a1.822 1.822 0 0 0 1.289-.528A1.78 1.78 0 0 0 61 18.896a1.76 1.76 0 0 0-.525-1.272 1.803 1.803 0 0 0-1.286-.524zm0 3.3c-.82 0-1.459-.636-1.459-1.504 0-.854.64-1.495 1.46-1.495.81 0 1.451.64 1.451 1.495 0 .867-.64 1.505-1.451 1.505" clip-rule="evenodd"/>
    <path fill="#006A53" fill-rule="evenodd" d="M60.225 18.436c0-.43-.222-.616-.675-.616h-.729v2.16h.288v-.936h.337l.503.936h.325l-.545-.95c.281-.04.496-.208.496-.594zm-1.115.331v-.67h.396c.203 0 .417.05.417.318 0 .332-.22.352-.465.352h-.348z" clip-rule="evenodd"/>
</svg>
