<svg xmlns="http://www.w3.org/2000/svg" width="80" height="27" fill="none" viewBox="0 0 80 27">
    <path fill="#fff" d="M20.686 17.734h-.031c0 .208-.512.372-1.143.379v.583h8.23c1.772 0 4.515-2.137 4.515-5.308 0-2.93-2.427-5.474-4.515-5.474h-8.23v.523h.01c.61 0 1.094.153 1.156.344h.008v.015c.002.009.012.014.012.025 0 .003-.01.008-.012.018v8.895zm2.519-7.545h4.306c.845 0 2.409 1.108 2.412 3.155.003 1.97-1.343 2.981-2.412 2.981h-4.306V10.19zM45.621 14.27c0-2.676-2.3-4.846-5.806-4.846-3.527 0-5.808 2.178-5.808 4.845 0 2.753 1.982 4.566 5.064 4.816h1.489c3.082-.25 5.061-2.063 5.061-4.816zm-9.067.129c0-1.503 1.289-2.715 3.27-2.715 1.982 0 3.268 1.212 3.268 2.715 0 1.5-1.286 2.714-3.268 2.714-1.98 0-3.27-1.215-3.27-2.714zM58.974 17.835s3.131-6.869 3.138-6.876a.81.81 0 0 1 .504-.295c.08-.015.44-.014.44-.014v-.67l-4.389.018v.65c.022 0 .127 0 .142.002.54.009.612.166.612.358l-1.712 4.4-1.94-5.136-1.448.007H52.8l-1.795 4.928-1.459-4.218h.022c0-.33.216-.357.548-.357V10H45.84v.63c.677 0 .633.151.748.358.004.003-.005.009-.005.012l2.605 6.606c.026.063.026.13.026.203 0 .365-.323.429-.705.438v.618l4.673.018v-.613h-.002c-.493 0-.678-.09-.678-.438 0-.055.01-.104.052-.149l1.767-3.776s1.51 3.784 1.51 3.916c0 .33-.116.447-.536.447v.613l4.333-.033v-.6c-.659 0-.664-.137-.654-.416z"/>
    <path fill="#EF3E42" d="M59.831 23.341a1.68 1.68 0 0 1 1.711-1.709 1.68 1.68 0 0 1 1.702 1.709c0 .993-.75 1.72-1.702 1.72-.962.002-1.71-.727-1.71-1.72zm1.711 2.065c1.146 0 2.124-.871 2.124-2.065 0-1.181-.979-2.053-2.124-2.053-1.156 0-2.133.872-2.133 2.053 0 1.194.976 2.065 2.133 2.065zm-.443-1.9h.422l.638 1.029h.413l-.691-1.046c.357-.043.63-.229.63-.652 0-.47-.284-.676-.858-.676h-.921v2.374h.368v-1.03h-.001zm0-.305v-.736h.5c.254 0 .527.056.527.35 0 .364-.278.386-.59.386H61.1zM27.511 10.168h-4.306v6.136h4.306c1.069 0 2.416-1.01 2.412-2.981-.003-2.047-1.567-3.155-2.412-3.155zM39.824 11.663c-1.981 0-3.27 1.212-3.27 2.715 0 1.5 1.289 2.714 3.27 2.714s3.268-1.215 3.268-2.714c0-1.502-1.287-2.715-3.268-2.715z"/>
    <path fill="#EF3E42" d="M39.73 0L0 13.234 39.73 27l40.268-13.677L39.73 0zM27.742 18.676h-8.23v-.584c.631-.007 1.143-.171 1.143-.378h.03V8.819c.003-.01.013-.014.013-.018 0-.01-.01-.016-.012-.024v-.015h-.008c-.062-.192-.547-.345-1.155-.345h-.01v-.523h8.23c2.087 0 4.514 2.544 4.514 5.475 0 3.17-2.743 5.307-4.515 5.307zm12.073.421c-3.506 0-5.808-1.88-5.808-4.849 0-2.667 2.28-4.845 5.808-4.845 3.507 0 5.806 2.17 5.806 4.845 0 2.969-2.3 4.849-5.806 4.849zm22.8-8.454a.807.807 0 0 0-.504.296c-.006.007-3.137 6.876-3.137 6.876-.01.279-.005.416.652.416v.602l-4.332.032v-.613c.42 0 .536-.117.536-.448 0-.131-1.51-3.915-1.51-3.915l-1.768 3.776a.2.2 0 0 0-.051.149c0 .346.184.438.678.438h.002v.612l-4.674-.017v-.618c.382-.01.705-.073.705-.439 0-.073 0-.14-.025-.203l-2.606-6.605c0-.004.009-.01.006-.012-.116-.207-.072-.358-.748-.358v-.63h4.276v.63c-.332 0-.548.027-.548.358h-.021l1.458 4.217 1.794-4.927h1.521l1.449-.008 1.94 5.137 1.711-4.4c0-.193-.071-.35-.611-.359-.016-.002-.12-.002-.142-.002v-.65l4.389-.017v.67s-.36-.002-.44.012z"/>
</svg>
