<svg xmlns="http://www.w3.org/2000/svg" width="38" height="30" fill="none" viewBox="0 0 38 30">
    <path fill="#3676C2" d="M28 18.07V23h4v-9a45.678 45.678 0 0 1-4 4.07zM31.81 13.838c5.162-5.254 7.3-10.138 5.635-12.49-1.737-2.454-7.134-1.46-14.13 2.188a6.374 6.374 0 0 0-.795.45c-.338.232-.14.4.109.31.298-.103.59-.224.876-.36 5.244-2.455 9.334-2.895 10.933-1.182 2.436 2.609-2.553 11.159-11.194 17.482-1.153.844-2.933 2.08-4.093 2.767l-.231.142c-.307.199-.58.383-.794.549-.21.16-.17.415.208.255.23-.097.509-.243.806-.423.067-.04.133-.077.204-.12 1.303-.78 3.237-2.098 4.558-3.008 1.1-.758 2.174-1.55 3.221-2.377a50.542 50.542 0 0 0 4.687-4.183z"/>
    <path fill="#3676C2" d="M8.933 30h4.78v-4.88a72.531 72.531 0 0 0 3.928-2.47c.292-.198.551-.395.74-.564.308-.279.084-.422-.154-.298a12.8 12.8 0 0 0-.85.497c-7.384 4.654-12.368 6.074-14.208 3.611-1.6-2.137 1.021-6.27 5.764-10.938v10.834c1.345-.45 2.936-1.168 4.778-2.178V13.562l1.05 2.205c1.153 2.434 3.244 3.89 5.903 3.89 2.658 0 4.75-1.456 5.902-3.89l1.051-2.205v2.565c1.71-1.635 3.17-3.267 4.277-4.845.138-.195.126-.36.05-.54a4.527 4.527 0 0 0-1.688-1.868 4.62 4.62 0 0 0-2.44-.692 4.61 4.61 0 0 0-4.118 2.52l-2 4.182a1.126 1.126 0 0 1-1.034.633c-.445 0-.828-.226-1.034-.633l-2-4.18a4.578 4.578 0 0 0-1.7-1.841c1.463-1.144 2.885-2.166 4.285-3.003.276-.168.543-.35.798-.547.217-.163.177-.423-.209-.263a6.564 6.564 0 0 0-.842.426c-1.43.854-2.892 1.727-4.29 2.669-.17.114-.337.228-.504.342a4.62 4.62 0 0 0-1.657-.305c-.601 0-1.197.116-1.753.343a4.578 4.578 0 0 0-1.486.978c-.425.419-.762.917-.992 1.464a4.45 4.45 0 0 0-.347 1.728v.621C2.181 19.25-1.364 25.124.488 27.74c1.36 1.918 4.585 1.475 8.445-.177V30z"/>
</svg>
