<svg xmlns="http://www.w3.org/2000/svg" width="100" height="66" fill="none" viewBox="0 0 100 66">
    <rect width="96.3" height="61.3" x="1.85" y="1.85" fill="#fff" stroke="#E2231A" stroke-width="3.7" rx="6.15"/>
    <path fill="#E2231A" stroke="#E2231A" stroke-miterlimit="10" stroke-width="2" d="M98.42 56.608c0 4.108-3.001 7.426-6.635 7.426H8.69c-3.791 0-6.793-3.318-6.793-7.426h96.525z"/>
    <path fill="#E2231A" d="M25.425 33.264V47h-2.251v-8.873c0-.355.019-.738.057-1.15l-4.152 7.8c-.196.373-.497.56-.902.56h-.361c-.406 0-.706-.187-.903-.56l-4.199-7.828c.02.209.035.414.048.617.012.203.019.39.019.56v8.874h-2.252V33.264h1.929c.114 0 .212.003.294.01a.737.737 0 0 1 .219.047.44.44 0 0 1 .18.123.96.96 0 0 1 .162.228l4.113 7.629c.108.202.206.411.295.627.095.215.187.437.275.665.089-.235.18-.46.276-.675.095-.221.196-.434.304-.636l4.056-7.61a.957.957 0 0 1 .162-.228.54.54 0 0 1 .18-.123.852.852 0 0 1 .228-.048c.083-.006.18-.01.295-.01h1.928zM40.546 47H37.97V35.23h-5.966V47H29.44V33.265h11.106V47z"/>
</svg>
