<svg xmlns="http://www.w3.org/2000/svg" width="18" height="33" fill="none" viewBox="0 0 18 33">
    <path fill="#B1060F" fill-rule="evenodd" d="M11.423 0l-.013 7.298-.013 7.297-.609-1.694-.001-.003L10 29.145a553.738 553.738 0 0 0 1.193 3.308c.006.006.447.033.98.059a77.11 77.11 0 0 1 5.131.434c.352.043.654.065.672.049.018-.016.028-7.447.022-16.512L17.988 0H11.422zM0 0v16.49c0 9.069.009 16.498.02 16.509.01.01.572-.043 1.247-.118.675-.076 1.608-.17 2.073-.21.713-.06 2.843-.197 3.09-.198.072 0 .076-.371.087-6.984l.01-6.984.516 1.46.183.515L8 4.247l-.266-.752L6.54.119 6.498 0H0z" clip-rule="evenodd"/>
    <path fill="url(#a)" fill-rule="evenodd" d="M0 0v9.256L6.456 26.55l.002-1.064.01-6.983.512 1.46c2.843 8.124 4.37 12.48 4.38 12.49.005.006.435.032.955.058a73.5 73.5 0 0 1 5.007.434c.343.043.638.065.656.049.012-.011.02-3.652.022-8.788L11.574 5.548l-.003 1.766-.012 7.292-.595-1.692A14491.15 14491.15 0 0 1 6.481.119L6.44 0H0z" clip-rule="evenodd"/>
    <path fill="#E50914" fill-rule="evenodd" d="M0 0l6.477 18.512v-.008l.511 1.46a4084.842 4084.842 0 0 0 4.386 12.49c.006.006.436.032.957.058 1.577.079 3.53.248 5.013.434.342.043.636.065.656.049l-6.427-18.39v.002l-.595-1.692A15999.808 15999.808 0 0 1 6.49.119L6.447 0H0z" clip-rule="evenodd"/>
    <defs>
        <radialGradient id="a" cx="0" cy="0" r="1" gradientTransform="matrix(3.85523 -1.34813 49.76502 142.31277 8.701 16.308)" gradientUnits="userSpaceOnUse">
            <stop/>
            <stop offset="1" stop-opacity="0"/>
        </radialGradient>
    </defs>
</svg>
