<svg xmlns="http://www.w3.org/2000/svg" width="229" height="104" fill="none" viewBox="0 0 229 104">
    <path fill="#EC231A" d="M229 0H0v104h229V0z"/>
    <path fill="#fff" d="M29.84 49.781h5.55v11.094h-5.55V49.78zm83.689 16.779h-5.552V44.235h5.552V66.56zm11.241-16.779h-5.551V38.688h5.551v11.093zM96.874 38.688h5.551v22.325h-5.551V38.688zM57.736 61.013h-5.552V38.688h5.552v22.325zM46.633 49.781H41.08V33.003h5.552V49.78z" opacity=".6"/>
    <path fill="#fff" d="M91.184 44.235h-5.552v27.872h5.552V44.235zM68.839 27.456h-5.552V38.55h5.552V27.456zM68.839 44.235h-5.552v27.872h5.552V44.235zM80.08 27.456h-5.55v44.65h5.55v-44.65zM91.184 27.456h-5.552V38.55h5.552V27.456zM137.4 44.235h-1.527v11.093h1.527V44.235z"/>
    <path fill="#fff" fill-rule="evenodd" d="M147.67 44.235v1.387h-3.47v9.706h-1.526v-9.706h-3.609v-1.387h8.605z" clip-rule="evenodd"/>
    <path fill="#fff" d="M150.863 44.235h-1.527v11.093h1.527V44.235z"/>
    <path fill="#fff" fill-rule="evenodd" d="M141.008 72.384c-.693 0-1.387-.138-1.943-.416-.555-.277-1.11-.693-1.665-1.109-.416-.555-.833-1.11-1.11-1.803-.278-.693-.417-1.525-.417-2.496 0-.97.139-1.802.417-2.496.277-.693.694-1.386 1.11-1.802.416-.555.972-.832 1.665-1.11.556-.277 1.25-.416 1.943-.416.417 0 .833 0 1.111.139.277 0 .694.139.971.139.278.138.417.138.694.277.139.139.278.139.417.277l-.417.971a6.75 6.75 0 0 0-.971-.416c-.417-.139-.972-.277-1.527-.277-.694 0-1.249.138-1.804.416-.555.277-.972.554-1.249.97-.417.416-.555.971-.833 1.526-.139.554-.278 1.248-.278 1.941 0 .693.139 1.387.278 1.941.139.555.416 1.11.833 1.526.277.416.832.693 1.249.97.555.278 1.11.278 1.665.278.694 0 1.249 0 1.805-.139.416-.139.832-.277 1.11-.416l.277.97c-.138 0-.138.14-.416.14-.139.138-.416.138-.694.277-.277.138-.555.138-.971.138h-1.25zM154.193 72.107c-.277-.555-.416-1.11-.555-1.525-.139-.555-.416-.971-.555-1.526h-5.413c-.138.416-.416.971-.555 1.526-.139.554-.416.97-.555 1.525h-1.11c.416-1.11.832-2.219 1.249-3.19.416-.97.694-1.94 1.11-2.911.416-.832.694-1.803 1.11-2.635.417-.832.694-1.664 1.111-2.496h.971c.417.832.833 1.664 1.111 2.496.416.832.693 1.664 1.11 2.635.416.832.694 1.802 1.11 2.912.417.97.833 2.08 1.249 3.189h-1.388zm-3.886-9.845c-.416.97-.832 1.802-1.249 2.773-.416.97-.833 1.941-1.249 3.05h4.719c-.416-1.109-.833-2.08-1.249-3.05-.139-.97-.555-1.941-.972-2.773zM160.578 60.875c1.527 0 2.776.277 3.47.97.832.555 1.11 1.387 1.11 2.497 0 .693-.139 1.109-.278 1.664-.277.416-.555.832-.971 1.109-.416.277-.972.416-1.527.555-.555.138-1.249.138-2.082.138h-1.526v4.299h-1.111V61.152c.417-.138.833-.138 1.388-.277h1.527zm0 .97h-.971c-.278 0-.556 0-.694.14v4.991h1.387c.556 0 1.111 0 1.666-.138.416-.139.833-.139 1.249-.416.278-.139.555-.416.833-.832.139-.278.277-.694.277-1.248 0-.555-.138-.971-.277-1.248-.139-.278-.417-.555-.833-.832-.278-.139-.694-.278-1.11-.416h-1.527z" clip-rule="evenodd"/>
    <path fill="#fff" d="M168.905 61.014h-1.11v11.093h1.11V61.014z"/>
    <path fill="#fff" fill-rule="evenodd" d="M179.592 61.014v.832h-3.609v10.261h-1.11V61.846h-3.609v-.832h8.328zM189.307 72.107c-.277-.555-.416-1.11-.555-1.525-.139-.555-.416-.971-.555-1.526h-5.413c-.139.416-.416.971-.555 1.526-.139.554-.416.97-.555 1.525h-1.111c.417-1.11.833-2.219 1.25-3.19.416-.97.694-1.94 1.11-2.911.416-.832.694-1.803 1.11-2.635.417-.832.694-1.664 1.11-2.496h.972c.416.832.833 1.664 1.11 2.496.417.832.694 1.664 1.111 2.635.416.832.694 1.802 1.11 2.912.416.97.833 2.08 1.249 3.189h-1.388zm-3.886-9.845c-.416.97-.833 1.802-1.249 2.773-.416.97-.833 1.941-1.249 3.05h4.719c-.417-1.109-.833-2.08-1.249-3.05-.139-.97-.556-1.941-.972-2.773zM199.161 71.137v.97h-6.384V61.014h1.11v10.123h5.274z" clip-rule="evenodd"/>
</svg>
