<svg xmlns="http://www.w3.org/2000/svg" width="27" height="35" fill="none" viewBox="0 0 27 35">
    <path fill="#FFD300" d="M11.245 19.944H7.904V35h3.341V19.944zM15.206 16.834h-3.341V35h3.341V16.834zM19.156 19.944h-3.334V35h3.334V19.944z"/>
    <path fill="#07050C" d="M3.337 20.539L0 17.842v-7.706h3.337v10.403zM7.301 23.898l-3.349-2.971V6.724h3.35v17.174zM11.245 3.363H7.904v16.108h3.341V3.363zM15.206 0h-3.341v16.172h3.341V0zM23.663 20.539L27 17.842v-7.706h-3.337v10.403zM19.707 23.898l3.327-2.971V6.724h-3.327v17.174zM19.156 3.363h-3.334v16.108h3.334V3.363z"/>
</svg>
