<svg xmlns="http://www.w3.org/2000/svg" width="61" height="20" fill="none" viewBox="0 0 61 20">
    <path fill="#00579F" d="M26.433 19.712h-4.941L24.582.35h4.942l-3.09 19.36zM44.346.824C43.372.433 41.826 0 39.914 0c-4.88 0-8.316 2.636-8.337 6.405-.04 2.78 2.46 4.325 4.33 5.253 1.913.947 2.563 1.565 2.563 2.41-.02 1.297-1.545 1.895-2.968 1.895-1.973 0-3.03-.308-4.636-1.03l-.651-.31-.692 4.347c1.16.535 3.295 1.01 5.512 1.03 5.184 0 8.56-2.595 8.6-6.612.02-2.204-1.3-3.893-4.148-5.272C37.76 7.23 36.7 6.632 36.7 5.726c.02-.824.896-1.668 2.847-1.668 1.606-.041 2.786.35 3.68.741l.447.206.672-4.18zM50.914 12.853c.407-1.112 1.973-5.417 1.973-5.417-.02.041.406-1.133.65-1.854l.345 1.668s.936 4.635 1.14 5.603h-4.108zM57.014.35H53.19c-1.178 0-2.074.35-2.582 1.606l-7.34 17.754h5.185l1.037-2.904h6.344c.142.68.59 2.904.59 2.904H61L57.014.351zM17.365.351l-4.84 13.202-.529-2.678c-.894-3.09-3.7-6.446-6.831-8.115l4.432 16.93h5.226L22.59.352h-5.225z"/>
    <path fill="#FAA61A" d="M8.032.351H.082L0 .742c6.202 1.607 10.309 5.48 11.996 10.134l-1.728-8.898C9.984.742 9.11.392 8.032.351z"/>
</svg>
