<svg xmlns="http://www.w3.org/2000/svg" width="58" height="32" fill="none" viewBox="0 0 58 32">
    <path fill="#BD9D61" d="M9.04 5.391C14.14 2.617 21.198.906 29 .906c7.8 0 14.86 1.714 19.96 4.488 5.031 2.732 8.15 6.484 8.15 10.604 0 4.12-3.11 7.876-8.14 10.608-5.1 2.774-12.151 4.491-19.961 4.491-7.81 0-14.858-1.717-19.959-4.491C4.01 23.877.911 20.122.911 15.998c0-4.123 3.099-7.872 8.13-10.607zM29 0c-7.962 0-15.19 1.766-20.411 4.621C3.28 7.513 0 11.537 0 16c0 4.461 3.28 8.485 8.588 11.38C13.818 30.233 21.043 32 28.998 32c7.956 0 15.19-1.766 20.414-4.622C54.72 24.484 58 20.463 58 15.998c0-4.464-3.28-8.488-8.588-11.38C44.182 1.766 36.964 0 29 0z"/>
    <path fill="#4B86AF" fill-rule="evenodd" d="M8.445 15.977L9.153 14h.911l-1.109 2.977a3.38 3.38 0 0 1-.522.999.936.936 0 0 1-.8.326 1.783 1.783 0 0 1-.394-.079v-.694a.92.92 0 0 0 .23.036.42.42 0 0 0 .326-.13c.098-.123.17-.265.213-.416L6.488 14h.979l.978 1.977zm3.177.142h.41a.882.882 0 0 0 .569-.166.648.648 0 0 0 .206-.522c.018-.492-.24-.737-.78-.737h-.405v1.425zm0 .716v1.367h-.93V14h1.304a2.55 2.55 0 0 1 1.388.302c.325.211.483.604.471 1.129-.012.928-.586 1.39-1.722 1.389l-.51.015zm5.484-2.135H15.47v3.502h-.911V14h2.558l-.012.7zm2.232 1.277L20.05 14h.912l-1.11 2.977c-.116.36-.293.697-.522.999a.932.932 0 0 1-.799.326 1.828 1.828 0 0 1-.398-.079v-.694a.92.92 0 0 0 .231.036.414.414 0 0 0 .325-.13c.1-.122.172-.264.213-.416L17.382 14h.975l.981 1.977zm3.9-1.283v3.508h-.91v-3.508h-1.091V14h3.08v.694H23.24zm2.625 1.576v1.932h-.91V14h.91v1.57h1.538V14h.91v4.202h-.91V16.27h-1.538zm6.052-1.57h-1.69v.997h1.416v.736h-1.415v1.075h1.901v.694h-2.83V14h2.618v.7zm3.45.176v2.028a.984.984 0 0 0 .77-.196c.186-.231.273-.526.242-.821 0-.715-.337-1.052-1.011-1.011zm-.91 0c-.645-.058-.967.274-.967 1.002-.03.292.051.585.228.82a.911.911 0 0 0 .738.197v-2.02zm0 3.32v-.604h-.128a2.584 2.584 0 0 1-.793-.105 1.393 1.393 0 0 1-.699-.583 1.874 1.874 0 0 1-.264-1.011c.001-.26.05-.518.143-.76.11-.279.306-.514.562-.671a1.972 1.972 0 0 1 1.178-.254v-.507h.912v.486c.421-.042.846.047 1.215.254.259.155.46.39.57.67.094.243.142.5.144.76a1.87 1.87 0 0 1-.268 1.012c-.16.27-.41.476-.708.582a2.725 2.725 0 0 1-.81.106h-.137v.604l-.918.021zm5.215-3.508v3.514h-.911v-3.508h-1.09V14h3.077v.694l-1.076-.006zm4.314 0h-1.686v1.009h1.415v.736h-1.415v1.075h1.901v.694h-2.83V14h2.615v.688zm3.466 0h-1.635v3.514h-.91V14h2.557l-.012.688zm1.804 1.917h1.024l-.526-1.322-.498 1.322zm-.273.719l-.325.866h-.93l1.595-4.202h.869l1.622 4.202h-.93l-.355-.885-1.546.019zm3.709-2.376l-.41-.577c.43-.32.954-.49 1.491-.483.291-.013.581.04.848.157.199.088.368.23.489.41.1.158.164.335.185.52.013.145-.003.29-.048.429a.787.787 0 0 1-.237.362.915.915 0 0 1-.444.2v.063c.23.017.445.116.608.277a.868.868 0 0 1 .255.652c0 .225-.066.445-.188.634a1.441 1.441 0 0 1-.56.501 2.284 2.284 0 0 1-.935.209 2.467 2.467 0 0 1-1.646-.604l.443-.565a.091.091 0 0 1 .049.025l.045.033.134.084.185.112c.245.129.524.181.8.15a.749.749 0 0 0 .488-.238.563.563 0 0 0 .158-.437c0-.302-.228-.477-.647-.477h-.407v-.713h.337a.636.636 0 0 0 .52-.175.463.463 0 0 0 .018-.564.503.503 0 0 0-.149-.142.824.824 0 0 0-.486-.133c-.321.016-.631.12-.896.302v-.012zm-46.639-.459l-.455.552a1.237 1.237 0 0 0-.985-.365 1.038 1.038 0 0 0-.793.586 1.774 1.774 0 0 0-.158.845c-.03.37.079.737.304 1.033.17.183.395.306.641.35A1.185 1.185 0 0 0 5.668 17l.51.447a2.08 2.08 0 0 1-1.658.855 1.865 1.865 0 0 1-1.005-.278 1.918 1.918 0 0 1-.699-.785 2.402 2.402 0 0 1-.25-1.12 2.155 2.155 0 0 1 .648-1.66c.388-.36.9-.56 1.43-.559.271-.003.54.05.787.157.236.098.448.245.62.432z" clip-rule="evenodd"/>
    <path fill="#BD9D61" fill-rule="evenodd" d="M44.133 20.013c-3.867 5.708-14.527 8.54-21.599 9.57a70.364 70.364 0 0 1-2.886-.4c4.29-1.415 14.183-3.924 15.976-9.17h8.509zM33.804 5.653c3.475.979 7.762 2.597 10.259 6.34H33.856c-.14-.175-.283-.35-.428-.522l-.119-.142-.042-.049-.332-.38-.042-.048-.085-.094-.17-.184-.13-.139-.177-.18-.046-.046-.088-.09-.133-.134-.088-.087-.046-.045-.091-.088-.046-.042-.045-.042-.091-.088-.046-.042-.046-.042-.045-.043-.04-.039-.04-.036-.039-.036-.04-.037-.039-.036-.04-.036-.039-.036-.042-.037-.04-.036-.079-.072-.04-.036-.039-.037-.04-.036-.039-.033-.079-.073-.04-.033-.039-.036-.042-.036-.08-.07-.039-.033-.04-.033-.078-.07-.158-.132-.255-.202-.234-.185v-.036a25.728 25.728 0 0 1 3.964-2.33z" clip-rule="evenodd"/>
    <path fill="#BD9D61" fill-rule="evenodd" d="M45.178 20.013c-3.32 5.735-13.488 8.947-19.615 9.87 1.163.043 2.172.128 3.527.128 7.54 0 14.277-1.612 19.21-4.2 3.309-1.78 5.335-3.69 6.559-5.795l-9.681-.003zM35.04 5.063c4.42 1.566 7.746 3.193 10.155 6.942l9.645-.027c-2.822-4.905-9.393-7.48-14.849-8.754-.969.244-4.538 1.624-4.951 1.838z" clip-rule="evenodd"/>
    <path fill="#4C7398" fill-rule="evenodd" d="M13.87 20.013c2 2.87 5.113 4.754 8.865 5.868.634.188 1.7.393 2.333.514a26.133 26.133 0 0 0 5.006-2.074l-.96.045H27.969a7.165 7.165 0 0 1-4.083-1.893 6.488 6.488 0 0 1-1.543-2.387l-8.473-.073zM35.496 2.44c-10.143 1.452-18.53 4.932-21.568 9.56h10.244l.033-.042.076-.1.076-.097.04-.048.118-.148c.063-.081.13-.163.197-.241l.04-.049c.109-.126.218-.256.33-.38l.043-.048.085-.094.17-.184.128-.139.173-.18.043-.046.088-.09.137-.134.088-.087.045-.045.088-.088.046-.042.046-.042.063-.064c.393-.37.796-.725 1.21-1.065l.109-.094.076-.063.233-.197.234-.184c.246-.193.486-.371.72-.528a33.61 33.61 0 0 1 9.503-4.643l-.113-.03c-.768-.142-2.005-.265-2.8-.368z" clip-rule="evenodd"/>
    <path fill="#4B86AF" fill-rule="evenodd" d="M12.807 12.002c3.563-6.016 13.998-8.899 19.657-9.859-1.303-.1-2.199-.154-3.554-.154-7.54 0-14.356 1.615-19.28 4.202-2.895 1.624-5.195 3.604-6.489 5.796l9.666.015zm8.06 14.151c-3.436-1.4-6.137-2.976-8.057-6.14H3.165c2.768 4.79 9.387 7.456 14.819 8.811 1.041-.277 4.583-1.433 5.659-1.874a15.949 15.949 0 0 1-2.777-.797z" clip-rule="evenodd"/>
</svg>
